<svg xmlns="http://www.w3.org/2000/svg" width="141" height="141" viewBox="0 0 141 141"><g transform="translate(0 0.118)"><circle cx="70.5" cy="70.5" r="70.5" transform="translate(0 -0.118)" fill="#639"/><path d="M19.1,97.592A54.616,54.616,0,0,1,3,59.353l54.843,54.34C43.755,113.19,29.667,108.158,19.1,97.592Zm51.321,14.591L4.509,46.271a55.311,55.311,0,0,1,98.617-20.629l-7.547,6.541a46.451,46.451,0,0,0-37.233-19.12c-19.623,0-36.227,12.579-42.768,30.189l57.862,57.862a45.615,45.615,0,0,0,29.183-32.7H78.472V58.346h35.22a55.5,55.5,0,0,1-43.271,53.837Z" transform="translate(12.094 12.094)" fill="#fff"/></g></svg>