<svg xmlns="http://www.w3.org/2000/svg" width="115" height="115" viewBox="0 0 115 115"><g transform="translate(0 -0.273)"><rect width="115" height="115" rx="9" transform="translate(0 0.273)" fill="#f7df1e"/><path d="M212.934,323.614c2.321,3.789,5.34,6.574,10.679,6.574,4.486,0,7.351-2.242,7.351-5.34,0-3.712-2.944-5.027-7.881-7.186l-2.706-1.161c-7.812-3.328-13-7.5-13-16.311,0-8.119,6.186-14.3,15.854-14.3,6.883,0,11.831,2.4,15.4,8.668l-8.43,5.413c-1.856-3.328-3.858-4.639-6.967-4.639-3.171,0-5.18,2.011-5.18,4.639,0,3.248,2.011,4.562,6.656,6.574l2.706,1.159c9.2,3.944,14.391,7.965,14.391,17.006,0,9.746-7.656,15.086-17.939,15.086-10.054,0-16.549-4.791-19.727-11.07Zm-38.241.938c1.7,3.017,3.248,5.568,6.967,5.568,3.557,0,5.8-1.392,5.8-6.8v-36.81h10.825v36.956c0,11.209-6.572,16.311-16.165,16.311-8.668,0-13.687-4.486-16.24-9.888Z" transform="translate(-135.547 -233.541)"/></g></svg>