<svg xmlns="http://www.w3.org/2000/svg" xmlns:xlink="http://www.w3.org/1999/xlink" width="150.877" height="92.405" viewBox="0 0 150.877 92.405"><defs><clipPath id="a"><path d="M209.591,226.157l-14.369,8.294a1.734,1.734,0,0,0-.868,1.5v16.6a1.734,1.734,0,0,0,.868,1.5l14.37,8.3a1.74,1.74,0,0,0,1.736,0l14.368-8.3a1.738,1.738,0,0,0,.866-1.5v-16.6a1.734,1.734,0,0,0-.87-1.5l-14.366-8.294a1.747,1.747,0,0,0-1.739,0" transform="translate(-194.354 -225.925)"/></clipPath><linearGradient id="b" x1="-0.847" y1="-1.034" x2="-0.838" y2="-1.034" gradientUnits="objectBoundingBox"><stop offset="0.3" stop-color="#3e863d"/><stop offset="0.5" stop-color="#55934f"/><stop offset="0.8" stop-color="#5aad45"/></linearGradient><clipPath id="c"><path d="M195.4,253.7a1.739,1.739,0,0,0,.512.449l12.326,7.12,2.053,1.18a1.742,1.742,0,0,0,1,.227,1.774,1.774,0,0,0,.341-.062l15.155-27.749a1.718,1.718,0,0,0-.4-.321l-9.409-5.433L212,226.25a1.813,1.813,0,0,0-.45-.181Zm0,0" transform="translate(-195.398 -226.069)"/></clipPath><linearGradient id="d" x1="-0.742" y1="-0.932" x2="-0.737" y2="-0.932" gradientUnits="objectBoundingBox"><stop offset="0.57" stop-color="#3e863d"/><stop offset="0.72" stop-color="#619857"/><stop offset="1" stop-color="#76ac64"/></linearGradient><clipPath id="e"><path d="M212.043,225.94a1.753,1.753,0,0,0-.694.222l-14.328,8.27,15.45,28.141a1.723,1.723,0,0,0,.617-.213l14.369-8.3a1.741,1.741,0,0,0,.839-1.186l-15.75-26.907a1.8,1.8,0,0,0-.351-.035c-.048,0-.1,0-.143.007" transform="translate(-197.021 -225.934)"/></clipPath><linearGradient id="f" x1="-2.148" y1="-2.103" x2="-2.138" y2="-2.103" gradientUnits="objectBoundingBox"><stop offset="0.16" stop-color="#6bbf47"/><stop offset="0.38" stop-color="#79b461"/><stop offset="0.47" stop-color="#75ac64"/><stop offset="0.7" stop-color="#659e5a"/><stop offset="0.9" stop-color="#3e863d"/></linearGradient></defs><g transform="translate(0 0)"><path d="M186.772,199.091a2.868,2.868,0,0,1-1.429-.382l-4.549-2.693c-.679-.38-.348-.514-.124-.592a9.184,9.184,0,0,0,2.057-.938.345.345,0,0,1,.339.024l3.495,2.074a.461.461,0,0,0,.422,0l13.626-7.865a.43.43,0,0,0,.208-.368V172.627a.437.437,0,0,0-.211-.375l-13.62-7.858a.419.419,0,0,0-.42,0l-13.617,7.858a.434.434,0,0,0-.216.372v15.723a.42.42,0,0,0,.211.365l3.731,2.156c2.026,1.013,3.264-.181,3.264-1.381V173.967a.389.389,0,0,1,.4-.392h1.726a.39.39,0,0,1,.392.392v15.525c0,2.7-1.473,4.253-4.035,4.253a5.841,5.841,0,0,1-3.141-.853l-3.574-2.06a2.881,2.881,0,0,1-1.429-2.486V172.624a2.863,2.863,0,0,1,1.429-2.483l13.639-7.868a2.988,2.988,0,0,1,2.865,0l13.622,7.872a2.874,2.874,0,0,1,1.429,2.483V188.35a2.883,2.883,0,0,1-1.429,2.483L188.206,198.7a2.864,2.864,0,0,1-1.436.382" transform="translate(-112.199 -106.686)" fill="#689f63"/><path d="M217.054,202.262c-5.962,0-7.212-2.737-7.212-5.032a.392.392,0,0,1,.395-.392H212a.394.394,0,0,1,.389.334c.266,1.793,1.057,2.7,4.662,2.7,2.872,0,4.093-.649,4.093-2.172,0-.877-.348-1.528-4.809-1.965-3.731-.368-6.037-1.19-6.037-4.175,0-2.749,2.319-4.386,6.2-4.386,4.362,0,6.525,1.514,6.8,4.768a.4.4,0,0,1-.106.3.406.406,0,0,1-.29.126h-1.77a.391.391,0,0,1-.382-.307c-.426-1.886-1.456-2.49-4.257-2.49-3.134,0-3.5,1.091-3.5,1.91,0,.992.43,1.282,4.659,1.842,4.188.556,6.177,1.34,6.177,4.284,0,2.967-2.476,4.669-6.794,4.669m16.6-16.675h.457a.4.4,0,0,0,.447-.416c0-.4-.276-.4-.43-.4h-.471Zm-.556-1.289h1.013c.348,0,1.03,0,1.03.778a.677.677,0,0,1-.556.723c.406.027.433.293.488.668a2.875,2.875,0,0,0,.153.778h-.624c-.017-.136-.113-.887-.113-.928-.041-.167-.1-.249-.307-.249h-.515v1.18h-.57Zm-1.218,1.467a2.2,2.2,0,1,0,2.193-2.2,2.2,2.2,0,0,0-2.193,2.2m4.829.01a2.626,2.626,0,1,1-2.626-2.626,2.634,2.634,0,0,1,2.626,2.626" transform="translate(-138.272 -120.691)" fill="#689f63"/><path d="M32.379,30.884a1.745,1.745,0,0,0-.872-1.516L17.061,21.056a1.687,1.687,0,0,0-.794-.229h-.149a1.716,1.716,0,0,0-.8.229L.874,29.368A1.758,1.758,0,0,0,0,30.885L.032,53.273a.859.859,0,0,0,.433.754.825.825,0,0,0,.866,0l8.588-4.918a1.761,1.761,0,0,0,.873-1.514V37.135a1.74,1.74,0,0,1,.871-1.511l3.656-2.106a1.735,1.735,0,0,1,.873-.235,1.7,1.7,0,0,1,.868.234l3.655,2.105a1.74,1.74,0,0,1,.873,1.511V47.592a1.767,1.767,0,0,0,.875,1.514l8.583,4.915a.853.853,0,0,0,.873,0,.876.876,0,0,0,.432-.754ZM100.547,42.54a.434.434,0,0,1-.218.377l-4.962,2.86a.437.437,0,0,1-.436,0l-4.963-2.86a.432.432,0,0,1-.218-.377V36.811a.439.439,0,0,1,.215-.379l4.959-2.865a.441.441,0,0,1,.44,0l4.963,2.865a.435.435,0,0,1,.218.379ZM101.888.111a.872.872,0,0,0-1.3.763V23.043a.61.61,0,0,1-.915.529l-3.619-2.084a1.742,1.742,0,0,0-1.744,0l-14.451,8.34a1.741,1.741,0,0,0-.873,1.508V48.02a1.747,1.747,0,0,0,.873,1.511l14.451,8.346a1.752,1.752,0,0,0,1.745,0l14.451-8.349a1.749,1.749,0,0,0,.873-1.511V6.434a1.749,1.749,0,0,0-.9-1.525Zm48.122,36.55a1.745,1.745,0,0,0,.867-1.508V31.109a1.746,1.746,0,0,0-.869-1.509L135.65,21.264a1.744,1.744,0,0,0-1.75,0L119.452,29.6a1.742,1.742,0,0,0-.873,1.511V47.792a1.751,1.751,0,0,0,.88,1.518l14.355,8.182a1.74,1.74,0,0,0,1.712.01l8.684-4.826a.871.871,0,0,0,.007-1.518l-14.536-8.342a.866.866,0,0,1-.44-.754V36.83a.866.866,0,0,1,.437-.756l4.523-2.609a.862.862,0,0,1,.87,0l4.526,2.609a.87.87,0,0,1,.437.754v4.113a.87.87,0,0,0,1.31.754Zm0,0" transform="translate(0 0)" fill="#fff" fill-rule="evenodd"/><path d="M388.855,105.113a.331.331,0,0,1,.334,0l2.773,1.6a.335.335,0,0,1,.167.29v3.2a.335.335,0,0,1-.167.29l-2.773,1.6a.331.331,0,0,1-.334,0l-2.771-1.6a.334.334,0,0,1-.171-.29V107a.331.331,0,0,1,.167-.29Zm0,0" transform="translate(-254.291 -69.232)" fill="#689f63" fill-rule="evenodd"/><g transform="translate(39.58 21.115)" clip-path="url(#a)"><path d="M213.028,208.45,172.539,188.6l-20.761,42.351L192.267,250.8Zm0,0" transform="translate(-166.299 -201.332)" fill="url(#b)"/></g><g transform="translate(39.936 21.164)" clip-path="url(#c)"><path d="M144.07,210.035l28.59,38.695,37.811-27.935L181.879,182.1Zm0,0" transform="translate(-161.576 -197.097)" fill="url(#d)"/></g><g transform="translate(40.49 21.118)" clip-path="url(#e)"><path d="M197.02,225.934v36.641h31.27V225.934Zm0,0" transform="translate(-197.02 -225.934)" fill="url(#f)"/></g></g></svg>