<svg xmlns="http://www.w3.org/2000/svg" width="130" height="115.771" viewBox="0 0 130 115.771"><g transform="translate(-175.7 -78)"><path d="M305.7,135.9c0-8.612-10.785-16.773-27.32-21.834C282.2,97.211,280.5,83.8,273.028,79.51a11.618,11.618,0,0,0-5.936-1.484v5.909a6.136,6.136,0,0,1,3.021.689c3.6,2.067,5.167,9.937,3.948,20.059-.291,2.491-.768,5.114-1.351,7.79a128.416,128.416,0,0,0-16.826-2.888A129.261,129.261,0,0,0,244.86,96.337c8.638-8.029,16.747-12.428,22.258-12.428V78h0c-7.287,0-16.826,5.194-26.472,14.2-9.645-8.956-19.185-14.1-26.472-14.1v5.909c5.485,0,13.62,4.372,22.258,12.348a125.159,125.159,0,0,0-10.944,13.223,123.74,123.74,0,0,0-16.853,2.915c-.609-2.65-1.06-5.22-1.378-7.684-1.245-10.122.291-17.992,3.869-20.086a5.9,5.9,0,0,1,3.047-.689V78.133h0a11.815,11.815,0,0,0-5.989,1.484c-7.446,4.293-9.115,17.674-5.273,34.474C186.432,119.178,175.7,127.313,175.7,135.9c0,8.612,10.785,16.773,27.32,21.835-3.816,16.853-2.12,30.261,5.353,34.554a11.648,11.648,0,0,0,5.962,1.484c7.287,0,16.826-5.194,26.472-14.2,9.645,8.956,19.185,14.1,26.472,14.1a11.815,11.815,0,0,0,5.989-1.484c7.446-4.293,9.115-17.674,5.273-34.474C294.968,152.645,305.7,144.484,305.7,135.9Zm-34.5-17.674c-.98,3.418-2.2,6.943-3.577,10.467-1.086-2.12-2.226-4.24-3.471-6.36-1.219-2.12-2.517-4.187-3.816-6.2C264.1,116.687,267.728,117.376,271.2,118.224Zm-12.136,28.221c-2.067,3.577-4.187,6.969-6.386,10.122-3.948.344-7.949.53-11.977.53-4,0-8-.185-11.924-.5q-3.3-4.73-6.413-10.069-3.021-5.207-5.512-10.546c1.643-3.551,3.5-7.1,5.485-10.573,2.067-3.577,4.187-6.969,6.386-10.122,3.948-.344,7.949-.53,11.977-.53,4,0,8,.185,11.924.5q3.3,4.73,6.413,10.069,3.021,5.207,5.512,10.546C262.879,139.423,261.051,142.974,259.063,146.445ZM267.622,143c1.431,3.551,2.65,7.1,3.657,10.546-3.471.848-7.128,1.563-10.917,2.12,1.3-2.04,2.6-4.134,3.816-6.28C265.4,147.266,266.536,145.12,267.622,143Zm-26.869,28.274a109.242,109.242,0,0,1-7.366-8.479c2.385.106,4.823.185,7.287.185,2.491,0,4.955-.053,7.366-.185A103.433,103.433,0,0,1,240.753,171.274Zm-19.715-15.607c-3.763-.556-7.393-1.245-10.864-2.093.98-3.418,2.2-6.943,3.577-10.467,1.086,2.12,2.226,4.24,3.471,6.36S219.74,153.652,221.038,155.666Zm19.582-55.143A109.233,109.233,0,0,1,247.987,109c-2.385-.106-4.823-.185-7.287-.185-2.491,0-4.955.053-7.367.185A103.428,103.428,0,0,1,240.621,100.523Zm-19.609,15.607c-1.3,2.04-2.6,4.134-3.816,6.28-1.219,2.12-2.358,4.24-3.445,6.36-1.431-3.551-2.65-7.1-3.657-10.546C213.566,117.4,217.223,116.687,221.012,116.131Zm-23.981,33.176c-9.38-4-15.448-9.248-15.448-13.408s6.068-9.433,15.448-13.408c2.279-.98,4.77-1.855,7.34-2.676a127.268,127.268,0,0,0,5.962,16.137,125.47,125.47,0,0,0-5.883,16.058C201.827,151.188,199.336,150.287,197.031,149.307Zm14.256,37.866c-3.6-2.067-5.167-9.937-3.948-20.059.291-2.491.768-5.114,1.351-7.79a128.413,128.413,0,0,0,16.826,2.888A129.257,129.257,0,0,0,236.54,175.46c-8.638,8.029-16.747,12.428-22.258,12.428A6.324,6.324,0,0,1,211.287,187.172Zm62.854-20.192c1.245,10.122-.291,17.992-3.869,20.086a5.9,5.9,0,0,1-3.047.689c-5.485,0-13.62-4.372-22.258-12.348a125.148,125.148,0,0,0,10.944-13.223,123.742,123.742,0,0,0,16.853-2.915A74.193,74.193,0,0,1,274.141,166.981Zm10.2-17.674c-2.279.98-4.77,1.855-7.34,2.676a127.267,127.267,0,0,0-5.962-16.137,125.486,125.486,0,0,0,5.883-16.058c2.623.821,5.114,1.722,7.446,2.7,9.38,4,15.448,9.248,15.448,13.408C299.791,140.059,293.723,145.332,284.343,149.307Z" transform="translate(0)" fill="#61dafb"/><path d="M320.8,78.4Z" transform="translate(-106.651 -0.264)" fill="#61dafb"/><circle cx="15.567" cy="15.567" r="15.567" transform="translate(225.109 120.331)" fill="#61dafb"/><path d="M520.5,78.1Z" transform="translate(-253.434 -0.066)" fill="#61dafb"/></g></svg>