<svg xmlns="http://www.w3.org/2000/svg" width="130" height="123.411" viewBox="0 0 130 123.411"><g transform="translate(-11.15 -13.3)"><path d="M104.478,77.824a9.627,9.627,0,0,0-1.028-19.2h-.343a9.59,9.59,0,0,0-9.256,9.941,9.843,9.843,0,0,0,2.742,6.342c-5.828,11.484-14.74,19.883-28.11,26.91a46.352,46.352,0,0,1-27.938,5.313c-7.713-1.028-13.712-4.456-17.483-10.113-5.485-8.4-6-17.483-1.371-26.567A40.346,40.346,0,0,1,33.346,56.741c-.686-2.228-1.714-6-2.228-8.741C6.265,66,8.836,90.336,16.377,101.82,22.034,110.39,33.518,115.7,46.2,115.7a42.136,42.136,0,0,0,10.284-1.2C78.425,110.219,95.051,97.192,104.478,77.824Z" transform="translate(0 20.322)" fill="#764abc"/><path d="M114.4,65C101.378,49.741,82.181,41.342,60.242,41.342H57.5A9.418,9.418,0,0,0,49.1,36.2h-.343A9.6,9.6,0,0,0,49.1,55.4h.343a9.655,9.655,0,0,0,8.4-5.828h3.085A65.328,65.328,0,0,1,97.436,60.71c8.57,5.656,14.74,13.026,18.169,21.939,2.914,7.2,2.742,14.226-.343,20.225-4.8,9.084-12.855,14.055-23.482,14.055a43.838,43.838,0,0,1-16.8-3.6c-1.885,1.714-5.313,4.456-7.713,6.17a52.909,52.909,0,0,0,22.111,5.313c16.455,0,28.624-9.084,33.252-18.169C127.6,96.7,127.26,79.564,114.4,65Z" transform="translate(15.548 11.897)" fill="#764abc"/><path d="M36.365,105.514a9.628,9.628,0,0,0,9.6,9.256h.343a9.6,9.6,0,0,0-.343-19.2H45.62a2.917,2.917,0,0,0-1.2.171,62.8,62.8,0,0,1-8.913-38.051A45.98,45.98,0,0,1,45.62,31.126c4.971-6.342,14.569-9.427,21.082-9.6,18.169-.343,25.882,22.282,26.4,31.366,2.228.514,6,1.714,8.57,2.571C99.612,27.7,82.472,13.3,66.017,13.3c-15.426,0-29.652,11.141-35.309,27.6-7.884,21.939-2.742,43.022,6.856,59.648a7.7,7.7,0,0,0-1.2,4.971Z" transform="translate(9.099)" fill="#764abc"/></g></svg>