<svg xmlns="http://www.w3.org/2000/svg" width="125.202" height="122.072" viewBox="0 0 125.202 122.072"><path d="M22.171,0h80.86A22.153,22.153,0,0,1,125.2,22.171V99.9a22.153,22.153,0,0,1-22.171,22.171H22.171A22.153,22.153,0,0,1,0,99.9V22.171A22.153,22.153,0,0,1,22.171,0Z" fill="#190113"/><g transform="translate(18.238 26.754)"><path d="M82.558,60.783,66.908,86.605,83.6,113.993a.9.9,0,0,1,.1.626c-.052.209-.261.052-.574.1H71.185c-.835,0-1.409-.052-1.774-.574-1.1-2.191-2.243-4.33-3.339-6.521-1.1-2.139-2.3-4.33-3.547-6.573s-2.5-4.486-3.756-6.782h-.1c-1.1,2.243-2.3,4.486-3.5,6.73s-2.4,4.486-3.547,6.677c-1.2,2.191-2.4,4.434-3.6,6.573-.209.522-.626.574-1.2.574H35.346c-.209,0-.365.1-.365-.157a.724.724,0,0,1,.1-.574L51.31,87.492,35.5,60.73c-.157-.209-.209-.417-.1-.522A.6.6,0,0,1,35.92,60H47.762a3.079,3.079,0,0,1,.73.1,1.48,1.48,0,0,1,.522.47c.991,2.243,2.139,4.486,3.339,6.73,1.252,2.243,2.452,4.434,3.756,6.625,1.252,2.191,2.4,4.382,3.5,6.625h.1c1.1-2.3,2.243-4.539,3.391-6.73s2.348-4.382,3.547-6.573,2.348-4.434,3.5-6.573a.887.887,0,0,1,.313-.522,1,1,0,0,1,.678-.1H82.141a.481.481,0,0,1,.574.365c.052.052-.052.261-.157.365Z" transform="translate(-34.961 -55.453)" fill="#ff61f6"/><path d="M152.261,111.65a25.935,25.935,0,0,1-11.216-2.348,18.187,18.187,0,0,1-7.877-7.095A22.573,22.573,0,0,1,130.3,90.314a21.426,21.426,0,0,1,2.869-11.007,21.664,21.664,0,0,1,8.295-8.086,26.685,26.685,0,0,1,13.2-3.026,9.315,9.315,0,0,1,1.1.052c.47.052.991.052,1.617.1V51.866c0-.365.157-.574.522-.574h10.59a.468.468,0,0,1,.522.365v49.768c0,.939.052,1.982.1,3.13.1,1.1.157,2.139.209,3.026a.847.847,0,0,1-.522.835,39.841,39.841,0,0,1-8.5,2.5A46.017,46.017,0,0,1,152.261,111.65Zm5.112-10.433V78.263A13.346,13.346,0,0,0,155.965,78c-.574-.052-1.148-.1-1.722-.1a12.86,12.86,0,0,0-5.895,1.356,11.7,11.7,0,0,0-4.434,3.86,11.564,11.564,0,0,0-1.722,6.625,14.537,14.537,0,0,0,.887,5.373,10.2,10.2,0,0,0,2.348,3.7,9.013,9.013,0,0,0,3.547,2.087,13.656,13.656,0,0,0,4.33.678c.783,0,1.513-.052,2.191-.1A4.563,4.563,0,0,0,157.373,101.217Z" transform="translate(-80.562 -51.284)" fill="#ff61f6"/></g></svg>