<svg xmlns="http://www.w3.org/2000/svg" viewBox="0 0 279.22 228.65"><defs><style>.\30 fcc903e-91c0-4f2b-add6-2fd478ccb9c1{fill:#2f1467;}.\39 3cf462a-ef5d-4f2b-8e91-03ed593cbb74{fill:#48a8b7;}</style></defs><title>Logo</title><g id="093c86e0-4f83-447c-8d47-39e209512e4d" data-name="Layer 2"><g id="555103e5-0f8b-4c33-a986-e7ab05e66799" data-name="Layer 1"><path class="0fcc903e-91c0-4f2b-add6-2fd478ccb9c1" d="M141,71.8,158.5,50.94v-.1H139.28a18.58,18.58,0,0,0-13.6,5.73,18.38,18.38,0,0,0-5.62,13.49v43.56a14.57,14.57,0,0,1-5.12,11.45,18.48,18.48,0,0,1-12.27,4.3v21a18,18,0,0,1,12.27,4.39A14,14,0,0,1,120.06,166v43.66a18.17,18.17,0,0,0,5.62,13.29,18.58,18.58,0,0,0,13.6,5.73H158.5V207.89H141Z"/><path class="0fcc903e-91c0-4f2b-add6-2fd478ccb9c1" d="M266.85,125.07a14.56,14.56,0,0,1-5.11-11.45V70.06a19.57,19.57,0,0,0-19.22-19.22H223.4v.22L240.78,71.8V207.89H223.4v20.76h19.12A18.46,18.46,0,0,0,256,222.92a18.24,18.24,0,0,0,5.73-13.29V166a14,14,0,0,1,5.11-11.25,18.33,18.33,0,0,1,12.37-4.39v-21A18.88,18.88,0,0,1,266.85,125.07Z"/><path class="93cf462a-ef5d-4f2b-8e91-03ed593cbb74" d="M207.64,61.42A2.59,2.59,0,0,1,205.05,64H176.74a2.58,2.58,0,0,1-2.58-2.58h0a2.58,2.58,0,0,1,2.58-2.59h28.31a2.59,2.59,0,0,1,2.59,2.59Z"/><path class="93cf462a-ef5d-4f2b-8e91-03ed593cbb74" d="M189.9,61.68c0-4.73-1.9-10.69-5.57-16.85-5.49-9.26-14.84-18.92-26.49-26.16S132.25,6.56,117.53,6.56a68.61,68.61,0,0,0-33.47,8.85C71.63,22.27,64,29,59.47,35.59a33.62,33.62,0,0,0-4.71,9.79,35.14,35.14,0,0,0-1.35,9.93c0,8,2.29,16.43,4.71,25.28S63,98.72,63.05,108.48a48.19,48.19,0,0,1-2.86,16.67,54.62,54.62,0,0,1-10.29,17l-5.13-4.25a47.69,47.69,0,0,0,9.09-14.94,41.39,41.39,0,0,0,2.47-14.46c0-8.63-2.29-17.36-4.7-26.2s-4.92-17.78-4.93-27a41.4,41.4,0,0,1,1.6-11.73A42.92,42.92,0,0,1,58.5,26.22C63.75,20.57,71,15.09,80.76,9.7A75.45,75.45,0,0,1,117.53,0,80,80,0,0,1,148.1,6.26a93.27,93.27,0,0,1,34.66,25.07,68.12,68.12,0,0,1,10.11,15.35,36.33,36.33,0,0,1,3.75,15Z"/><polygon class="93cf462a-ef5d-4f2b-8e91-03ed593cbb74" points="3.96 158.43 5.96 156.52 27.46 178.05 48.39 158.1 44.96 142.27 28.85 138.53 5.91 160.39 3.96 158.43 5.96 156.52 3.96 158.43 2 156.48 27.14 132.51 49.7 137.75 54.51 159.91 27.36 185.78 0 158.38 2 156.48 3.96 158.43"/><path class="93cf462a-ef5d-4f2b-8e91-03ed593cbb74" d="M37.26,147.07a2.61,2.61,0,1,0,2.61-2.55A2.58,2.58,0,0,0,37.26,147.07Z"/></g></g></svg>